<svg width="87" height="20" viewBox="0 0 87 20" fill="none" xmlns="http://www.w3.org/2000/svg">
<path d="M15.8588 6.89649L11.626 6.17579L9.73383 1.68165C9.68215 1.5586 9.59713 1.45899 9.4921 1.39844C9.2287 1.2461 8.90862 1.37305 8.77692 1.68165L6.88476 6.17579L2.65198 6.89649C2.53529 6.91603 2.42859 6.98048 2.3469 7.07813C2.24815 7.19705 2.19373 7.35704 2.1956 7.52294C2.19748 7.68884 2.2555 7.84709 2.35691 7.9629L5.41937 11.4609L4.69585 16.4004C4.67888 16.5153 4.68974 16.6335 4.72718 16.7415C4.76462 16.8496 4.82715 16.9432 4.90769 17.0117C4.98822 17.0802 5.08353 17.1209 5.18281 17.1292C5.28209 17.1375 5.38137 17.1131 5.46939 17.0586L9.25537 14.7266L13.0414 17.0586C13.1447 17.1231 13.2648 17.1445 13.3798 17.1211C13.6699 17.0625 13.8649 16.7402 13.8149 16.4004L13.0914 11.4609L16.1538 7.9629C16.2372 7.8672 16.2922 7.7422 16.3089 7.60548C16.3539 7.26368 16.1505 6.94728 15.8588 6.89649V6.89649Z" fill="#F1A208"/>
<path d="M32.9299 6.89649L28.6972 6.17579L26.805 1.68165C26.7533 1.5586 26.6683 1.45899 26.5633 1.39844C26.2999 1.2461 25.9798 1.37305 25.8481 1.68165L23.9559 6.17579L19.7232 6.89649C19.6065 6.91603 19.4998 6.98048 19.4181 7.07813C19.3193 7.19705 19.2649 7.35704 19.2668 7.52294C19.2686 7.68884 19.3267 7.84709 19.4281 7.9629L22.4905 11.4609L21.767 16.4004C21.7501 16.5153 21.7609 16.6335 21.7983 16.7415C21.8358 16.8496 21.8983 16.9432 21.9789 17.0117C22.0594 17.0802 22.1547 17.1209 22.254 17.1292C22.3533 17.1375 22.4525 17.1131 22.5406 17.0586L26.3265 14.7266L30.1125 17.0586C30.2159 17.1231 30.3359 17.1445 30.451 17.1211C30.741 17.0625 30.9361 16.7402 30.8861 16.4004L30.1625 11.4609L33.225 7.9629C33.3084 7.8672 33.3634 7.7422 33.3801 7.60548C33.4251 7.26368 33.2217 6.94728 32.9299 6.89649V6.89649Z" fill="#F1A208"/>
<path d="M50.001 6.89649L45.7682 6.17579L43.876 1.68165C43.8244 1.5586 43.7393 1.45899 43.6343 1.39844C43.3709 1.2461 43.0508 1.37305 42.9191 1.68165L41.027 6.17579L36.7942 6.89649C36.6775 6.91603 36.5708 6.98048 36.4891 7.07813C36.3904 7.19705 36.3359 7.35704 36.3378 7.52294C36.3397 7.68884 36.3977 7.84709 36.4991 7.9629L39.5616 11.4609L38.8381 16.4004C38.8211 16.5153 38.8319 16.6335 38.8694 16.7415C38.9068 16.8496 38.9694 16.9432 39.0499 17.0117C39.1304 17.0802 39.2257 17.1209 39.325 17.1292C39.4243 17.1375 39.5236 17.1131 39.6116 17.0586L43.3976 14.7266L47.1836 17.0586C47.2869 17.1231 47.407 17.1445 47.522 17.1211C47.8121 17.0625 48.0071 16.7402 47.9571 16.4004L47.2336 11.4609L50.2961 7.9629C50.3794 7.8672 50.4344 7.7422 50.4511 7.60548C50.4961 7.26368 50.2927 6.94728 50.001 6.89649V6.89649Z" fill="#F1A208"/>
<path d="M67.0721 6.89649L62.8394 6.17579L60.9472 1.68165C60.8955 1.5586 60.8105 1.45899 60.7055 1.39844C60.4421 1.2461 60.122 1.37305 59.9903 1.68165L58.0981 6.17579L53.8654 6.89649C53.7487 6.91603 53.642 6.98048 53.5603 7.07813C53.4615 7.19705 53.4071 7.35704 53.409 7.52294C53.4109 7.68884 53.4689 7.84709 53.5703 7.9629L56.6328 11.4609L55.9092 16.4004C55.8923 16.5153 55.9031 16.6335 55.9406 16.7415C55.978 16.8496 56.0405 16.9432 56.1211 17.0117C56.2016 17.0802 56.2969 17.1209 56.3962 17.1292C56.4955 17.1375 56.5947 17.1131 56.6828 17.0586L60.4688 14.7266L64.2547 17.0586C64.3581 17.1231 64.4781 17.1445 64.5932 17.1211C64.8832 17.0625 65.0783 16.7402 65.0283 16.4004L64.3048 11.4609L67.3672 7.9629C67.4506 7.8672 67.5056 7.7422 67.5223 7.60548C67.5673 7.26368 67.3639 6.94728 67.0721 6.89649V6.89649Z" fill="#F1A208"/>
<path d="M79.4497 6.36981L79.5562 6.62265L79.8266 6.6687L84.0538 7.38844C84.057 7.39061 84.0641 7.39656 84.073 7.41058C84.091 7.43874 84.105 7.48487 84.0977 7.54019L84.0971 7.54496C84.0919 7.58803 84.0755 7.61811 84.0616 7.63423C84.0615 7.63432 84.0614 7.63442 84.0614 7.63451L80.9997 11.1316L80.8478 11.3052L80.8812 11.5334L81.6047 16.4729L81.6048 16.4732C81.613 16.5292 81.5997 16.5774 81.5815 16.6077C81.5777 16.614 81.5742 16.6188 81.5711 16.6224L77.8021 14.3009L77.5399 14.1393L77.2777 14.3009L73.5083 16.6227C73.501 16.6139 73.4917 16.5995 73.4842 16.5778C73.4735 16.547 73.4696 16.5101 73.475 16.4734L73.4751 16.4729L74.1986 11.5334L74.2321 11.3052L74.0801 11.1316L71.0177 7.63355L71.0176 7.63351C71.0011 7.61466 70.9808 7.57399 70.9801 7.51729C70.9795 7.46122 70.9985 7.41918 71.0155 7.39825C71.0199 7.39311 71.0234 7.39011 71.0254 7.38855L75.2532 6.6687L75.5237 6.62265L75.6301 6.36981L77.5213 1.87791C77.5214 1.87764 77.5216 1.87738 77.5217 1.87711C77.5281 1.86222 77.5347 1.85195 77.5403 1.84501C77.5455 1.85179 77.5516 1.86157 77.5574 1.87527L77.5576 1.87567L79.4497 6.36981ZM84.0518 7.38739C84.0518 7.38735 84.0522 7.38749 84.0529 7.38792L84.0518 7.38739ZM73.7039 11.4609L72.9804 16.4004L73.7039 11.4609Z" stroke="#F1A208"/>
</svg>
