<svg width="24" height="24" viewBox="0 0 24 24" fill="none" xmlns="http://www.w3.org/2000/svg">
<path d="M18.75 5.24997C20.076 4.32897 21.693 5.13897 22.5 6.53697L13.161 12L22.5 17.463C21.693 18.861 20.076 19.671 18.75 18.75L11.085 13.215L7.0935 15.549C7.51474 16.376 7.61433 17.3298 7.373 18.226C7.13167 19.1222 6.56657 19.8971 5.787 20.4008C5.00742 20.9044 4.06877 21.1011 3.15258 20.9528C2.23639 20.8044 1.40776 20.3216 0.826969 19.5976C0.246174 18.8737 -0.0455208 17.9601 0.00830078 17.0335C0.0621204 16.107 0.457632 15.2333 1.11834 14.5814C1.77905 13.9296 2.658 13.546 3.58521 13.5047C4.51241 13.4634 5.42198 13.7674 6.138 14.358L9.405 12L6.1395 9.64197C5.42348 10.2325 4.51391 10.5365 3.58671 10.4953C2.6595 10.454 1.78055 10.0703 1.11984 9.4185C0.459133 8.76667 0.0636196 7.89299 0.00979996 6.96643C-0.0440216 6.03987 0.247675 5.12627 0.828468 4.40233C1.40926 3.67838 2.23789 3.19554 3.15408 3.04719C4.07027 2.89883 5.00892 3.09551 5.7885 3.59917C6.56807 4.10284 7.13317 4.8777 7.3745 5.7739C7.61583 6.6701 7.51624 7.62395 7.095 8.45097L11.085 10.785L18.75 5.24997ZM3.75 8.99997C4.34674 8.99997 4.91903 8.76292 5.34099 8.34096C5.76295 7.91901 6 7.34671 6 6.74997C6 6.15324 5.76295 5.58094 5.34099 5.15898C4.91903 4.73703 4.34674 4.49997 3.75 4.49997C3.15326 4.49997 2.58097 4.73703 2.15901 5.15898C1.73705 5.58094 1.5 6.15324 1.5 6.74997C1.5 7.34671 1.73705 7.91901 2.15901 8.34096C2.58097 8.76292 3.15326 8.99997 3.75 8.99997ZM3.75 19.5C4.34674 19.5 4.91903 19.2629 5.34099 18.841C5.76295 18.419 6 17.8467 6 17.25C6 16.6532 5.76295 16.0809 5.34099 15.659C4.91903 15.237 4.34674 15 3.75 15C3.15326 15 2.58097 15.237 2.15901 15.659C1.73705 16.0809 1.5 16.6532 1.5 17.25C1.5 17.8467 1.73705 18.419 2.15901 18.841C2.58097 19.2629 3.15326 19.5 3.75 19.5Z" fill="white"/>
</svg>
