<svg width="20" height="20" viewBox="0 0 20 20" fill="none" xmlns="http://www.w3.org/2000/svg">
<path d="M15.8334 7.50002C15.8334 6.73398 15.6825 5.97543 15.3894 5.2677C15.0962 4.55997 14.6665 3.91691 14.1249 3.37523C13.5832 2.83356 12.9401 2.40388 12.2324 2.11072C11.5247 1.81757 10.7661 1.66669 10.0001 1.66669C9.23404 1.66669 8.47549 1.81757 7.76776 2.11072C7.06003 2.40388 6.41697 2.83356 5.87529 3.37523C5.33362 3.91691 4.90394 4.55997 4.61078 5.2677C4.31763 5.97543 4.16675 6.73398 4.16675 7.50002C4.16675 8.65585 4.50841 9.73085 5.08758 10.6375H5.08091C7.04758 13.7167 10.0001 18.3334 10.0001 18.3334L14.9192 10.6375H14.9134C15.5138 9.70116 15.833 8.61231 15.8334 7.50002V7.50002ZM10.0001 10C9.33704 10 8.70116 9.73663 8.23231 9.26779C7.76347 8.79895 7.50008 8.16306 7.50008 7.50002C7.50008 6.83698 7.76347 6.20109 8.23231 5.73225C8.70116 5.26341 9.33704 5.00002 10.0001 5.00002C10.6631 5.00002 11.299 5.26341 11.7678 5.73225C12.2367 6.20109 12.5001 6.83698 12.5001 7.50002C12.5001 8.16306 12.2367 8.79895 11.7678 9.26779C11.299 9.73663 10.6631 10 10.0001 10Z" fill="#8C8C8C"/>
</svg>
