<svg width="42" height="42" viewBox="0 0 42 42" fill="none" xmlns="http://www.w3.org/2000/svg">
<path d="M35.2118 31.3195C34.4381 29.4868 33.3153 27.8221 31.9059 26.4182C30.5009 25.0101 28.8364 23.8875 27.0045 23.1123C26.9881 23.1041 26.9717 23.1 26.9553 23.0918C29.5106 21.2461 31.1717 18.2396 31.1717 14.8477C31.1717 9.22852 26.619 4.67578 20.9999 4.67578C15.3807 4.67578 10.828 9.22852 10.828 14.8477C10.828 18.2396 12.4891 21.2461 15.0444 23.0959C15.028 23.1041 15.0116 23.1082 14.9952 23.1164C13.1577 23.8916 11.5088 25.0031 10.0938 26.4223C8.68578 27.8273 7.56316 29.4918 6.78794 31.3236C6.02638 33.1171 5.61564 35.0398 5.57798 36.9879C5.57689 37.0317 5.58457 37.0752 5.60057 37.116C5.61656 37.1567 5.64056 37.1939 5.67114 37.2252C5.70172 37.2566 5.73826 37.2815 5.77862 37.2985C5.81897 37.3155 5.86232 37.3242 5.90611 37.3242H8.36705C8.54751 37.3242 8.69107 37.1807 8.69517 37.0043C8.7772 33.8379 10.0487 30.8725 12.2963 28.6248C14.6219 26.2992 17.7104 25.0195 20.9999 25.0195C24.2893 25.0195 27.3778 26.2992 29.7034 28.6248C31.951 30.8725 33.2225 33.8379 33.3045 37.0043C33.3086 37.1848 33.4522 37.3242 33.6327 37.3242H36.0936C36.1374 37.3242 36.1807 37.3155 36.2211 37.2985C36.2615 37.2815 36.298 37.2566 36.3286 37.2252C36.3592 37.1939 36.3832 37.1567 36.3992 37.116C36.4151 37.0752 36.4228 37.0317 36.4217 36.9879C36.3807 35.0273 35.9747 33.1201 35.2118 31.3195V31.3195ZM20.9999 21.9023C19.1172 21.9023 17.3454 21.1682 16.0124 19.8352C14.6794 18.5021 13.9452 16.7303 13.9452 14.8477C13.9452 12.965 14.6794 11.1932 16.0124 9.86016C17.3454 8.52715 19.1172 7.79297 20.9999 7.79297C22.8825 7.79297 24.6543 8.52715 25.9874 9.86016C27.3204 11.1932 28.0545 12.965 28.0545 14.8477C28.0545 16.7303 27.3204 18.5021 25.9874 19.8352C24.6543 21.1682 22.8825 21.9023 20.9999 21.9023Z" fill="#38023B"/>
</svg>
